<svg width="154" height="78" viewBox="0 0 154 78" fill="none" xmlns="http://www.w3.org/2000/svg">
<path fill-rule="evenodd" clip-rule="evenodd" d="M24.6861 37.4314L24.6867 37.4269C25.329 32.6373 29.4316 28.9435 34.3973 28.9435H40.7092C40.9035 28.4899 41.3538 28.1719 41.8786 28.1719C42.5812 28.1719 43.1506 28.7413 43.1506 29.4437C43.1506 30.1462 42.5812 30.7156 41.8786 30.7156C41.3426 30.7156 40.8842 30.384 40.6971 29.915H34.3973C29.9132 29.915 26.2101 33.2587 25.6455 37.5887C25.6209 37.811 25.4306 38.0029 25.1645 38.0029C24.9114 38.0029 24.7034 37.8092 24.6807 37.562L24.6861 37.4314ZM42.3908 29.4446C42.3908 29.7281 42.161 29.9579 41.8777 29.9579C41.5941 29.9579 41.3643 29.7281 41.3643 29.4446C41.3643 29.1611 41.5941 28.9313 41.8777 28.9313C42.161 28.9313 42.3908 29.1611 42.3908 29.4446Z" fill="url(#paint0_linear_2573_949)"/>
<path fill-rule="evenodd" clip-rule="evenodd" d="M24.7184 40.7984C24.6274 40.2549 24.8152 39.8106 25.1142 39.4497C25.4097 39.0933 25.8187 38.8118 26.1864 38.5829C26.2305 38.5555 26.2827 38.526 26.3371 38.4953L26.3389 38.4941C26.6956 38.2926 27.2124 37.9933 27.3412 37.399C27.3468 37.3731 27.3525 37.3472 27.3584 37.3214C27.3795 37.2287 27.4023 37.1367 27.4268 37.0456C28.2958 33.8095 31.2708 31.5037 34.6585 31.5037H43.2527C43.447 31.0498 43.8975 30.7316 44.4227 30.7316C45.125 30.7316 45.6944 31.3009 45.6944 32.0036C45.6944 32.7059 45.125 33.2753 44.4227 33.2753C43.8855 33.2753 43.4268 32.9426 43.24 32.4725L38.953 32.4728V32.4722H34.6585C31.7487 32.4722 29.1877 34.4273 28.3935 37.1842C28.3656 37.2814 28.3398 37.3791 28.3163 37.4781C28.3099 37.5052 28.3036 37.5322 28.2976 37.5596C28.0784 38.5383 27.1688 39.0449 26.5787 39.3736L26.5497 39.3899C26.3942 39.4765 26.1448 39.6407 25.9488 39.8594C25.7519 40.0786 25.6255 40.3328 25.668 40.6083C26.2362 44.2905 29.3498 48.0641 34.6585 48.0641H38.953V48.0635H40.706C40.8985 47.606 41.3508 47.2845 41.8787 47.2845C42.5813 47.2845 43.1507 47.8538 43.1507 48.5562C43.1507 49.2588 42.5813 49.8282 41.8787 49.8282C41.3445 49.8282 40.8876 49.4988 40.6993 49.0326H39.514H34.6585C28.896 49.0326 25.3997 44.9302 24.7184 40.7984ZM44.9358 32.003C44.9358 32.2863 44.706 32.5161 44.4227 32.5161C44.1391 32.5161 43.9093 32.2863 43.9093 32.003C43.9093 31.7193 44.1391 31.4895 44.4227 31.4895C44.706 31.4895 44.9358 31.7193 44.9358 32.003ZM42.3927 48.5592C42.3927 48.8428 42.1629 49.0726 41.8796 49.0726C41.596 49.0726 41.3662 48.8428 41.3662 48.5592C41.3662 48.2758 41.596 48.046 41.8796 48.046C42.1629 48.046 42.3927 48.2758 42.3927 48.5592Z" fill="url(#paint1_linear_2573_949)"/>
<path fill-rule="evenodd" clip-rule="evenodd" d="M38.9531 46.4777L34.6585 46.4774C30.9093 46.4774 27.7178 43.6783 27.2346 39.9655C27.1999 39.7005 27.387 39.4578 27.6517 39.4229C27.9167 39.3868 28.1606 39.5763 28.1952 39.8407C28.6156 43.0716 31.3944 45.5089 34.6585 45.5089L43.2467 45.5086C43.4377 45.0475 43.8919 44.7226 44.4228 44.7226C45.1251 44.7226 45.6945 45.292 45.6945 45.9943C45.6945 46.6967 45.1251 47.2663 44.4228 47.2663C43.891 47.2663 43.4362 46.9403 43.2458 46.4777H38.9531ZM44.9359 45.997C44.9359 46.2804 44.7061 46.5102 44.4228 46.5102C44.1391 46.5102 43.9093 46.2804 43.9093 45.997C43.9093 45.7134 44.1391 45.4836 44.4228 45.4836C44.7061 45.4836 44.9359 45.7134 44.9359 45.997Z" fill="url(#paint2_linear_2573_949)"/>
<path d="M55.9789 31.8583H63.4888C63.8922 31.8583 64.2194 32.1855 64.2194 32.5889V33.7183C64.2194 34.122 63.8922 34.4489 63.4888 34.4489H55.9789C55.6402 34.4489 55.3368 34.5018 55.0676 34.6077C54.7987 34.7148 54.5683 34.8646 54.3764 35.0565C54.183 35.2484 54.035 35.4824 53.9321 35.7591C53.8295 36.034 53.7781 36.3408 53.7781 36.6792V41.3503C53.819 41.5967 53.8702 41.849 53.9321 42.1074C53.9956 42.3673 54.1036 42.6028 54.2564 42.8145C54.4088 43.0275 54.6212 43.2034 54.8931 43.3424C55.1665 43.4832 55.5287 43.5533 55.9789 43.5533H63.4888C63.8922 43.5533 64.2194 43.8805 64.2194 44.2839V45.4109C64.2194 45.8145 63.8922 46.1415 63.4888 46.1415H55.9789C55.3879 46.1415 54.8606 46.0669 54.3968 45.9171C53.9315 45.7676 53.5212 45.5706 53.166 45.3258C52.8111 45.0794 52.5073 44.7925 52.255 44.4643C52.0026 44.135 51.7951 43.7942 51.6317 43.4423C51.4702 43.0904 51.3523 42.7336 51.2783 42.3724C51.2055 42.0099 51.1694 41.6692 51.1694 41.3503V36.6612C51.1694 36.3423 51.2055 36.0015 51.2783 35.6388C51.3523 35.2779 51.4702 34.919 51.6317 34.5623C51.7951 34.2071 52.0026 33.8672 52.255 33.5424C52.5073 33.2175 52.8111 32.9306 53.166 32.6812C53.5212 32.4319 53.933 32.2324 54.4013 32.0827C54.8696 31.9332 55.3957 31.8583 55.9789 31.8583Z" fill="white"/>
<path d="M69.0405 36.6407V32.5892C69.0405 32.1855 69.3675 31.8583 69.7711 31.8583H70.9003C71.3039 31.8583 71.6309 32.1855 71.6309 32.5889V36.6407C71.6309 36.9791 71.6838 37.2829 71.7897 37.5518C71.8967 37.8207 72.0465 38.0511 72.2384 38.243C72.4303 38.4364 72.6643 38.5846 72.9411 38.6872C73.216 38.7901 73.5228 38.8415 73.8611 38.8415H78.5323C78.7786 38.8006 79.031 38.7492 79.2893 38.6872C79.5492 38.6237 79.785 38.5158 79.9965 38.3633C80.2094 38.2105 80.3854 37.9981 80.5247 37.7262C80.6651 37.4528 80.7352 37.091 80.7352 36.6407V32.5892C80.7352 32.1855 81.0624 31.8583 81.4658 31.8583H82.5931C82.9965 31.8583 83.3237 32.1855 83.3237 32.5889V36.6407C83.3237 37.2314 83.2488 37.7587 83.0993 38.2225C82.9496 38.6881 82.7525 39.0984 82.5077 39.4533C82.2614 39.8085 81.9744 40.112 81.6466 40.3644C81.3169 40.6167 80.9764 40.8246 80.6242 40.9876C80.2723 41.1494 79.9156 41.2673 79.5543 41.3413C79.1919 41.4138 78.8511 41.4502 78.5323 41.4502H77.4874V45.4109C77.4874 45.8145 77.1604 46.1415 76.7568 46.1415H75.6093C75.2059 46.1415 74.8787 45.8145 74.8787 45.4109V41.4502H73.8431C73.5243 41.4502 73.1835 41.4138 72.8207 41.3413C72.4598 41.2673 72.101 41.1494 71.7442 40.9876C71.3893 40.8246 71.0491 40.6167 70.7243 40.3644C70.3995 40.112 70.1125 39.8085 69.8632 39.4533C69.6138 39.0984 69.4144 38.6866 69.2649 38.218C69.1151 37.7497 69.0405 37.2239 69.0405 36.6407Z" fill="white"/>
<path d="M88.228 36.0831C88.228 35.3049 88.3655 34.6492 88.6404 34.1159C88.9171 33.5809 89.2621 33.1456 89.6763 32.8102C90.0917 32.4749 90.5419 32.2324 91.0271 32.0827C91.5105 31.9332 91.9616 31.8583 92.38 31.8583H101.194C101.598 31.8583 101.925 32.1855 101.925 32.5889V33.7183C101.925 34.122 101.598 34.4489 101.194 34.4489H92.38C91.8891 34.4489 91.5059 34.5987 91.231 34.8977C90.9546 35.1954 90.8163 35.5904 90.8163 36.0831C90.8163 36.5802 90.9546 36.9731 91.231 37.2615C91.5059 37.5503 91.8891 37.6946 92.38 37.6946H98.3568C98.6363 37.7022 98.9316 37.7407 99.2429 37.8101C99.5558 37.8796 99.8662 37.9876 100.174 38.1344C100.483 38.2794 100.777 38.4637 101.056 38.6872C101.334 38.9095 101.581 39.176 101.797 39.4873C102.013 39.8001 102.185 40.1589 102.312 40.5638C102.437 40.9689 102.5 41.4273 102.5 41.9396C102.5 42.4503 102.435 42.9096 102.305 43.3177C102.176 43.7256 102.006 44.0859 101.793 44.3988C101.58 44.7101 101.331 44.9759 101.047 45.1964C100.762 45.4157 100.465 45.5947 100.159 45.7336C99.8532 45.8726 99.5437 45.9754 99.2294 46.0419C98.9136 46.1084 98.6158 46.1415 98.3364 46.1415H89.0765C88.6729 46.1415 88.3459 45.8145 88.3459 45.4109V44.2817C88.3459 43.8781 88.6729 43.5511 89.0765 43.5511H98.3364C98.8351 43.5511 99.2219 43.4053 99.4968 43.1135C99.7732 42.8221 99.9116 42.4307 99.9116 41.9396C99.9116 41.6992 99.8746 41.4797 99.8006 41.28C99.7281 41.082 99.6237 40.91 99.4878 40.7632C99.3518 40.6167 99.1855 40.5042 98.9891 40.4257C98.7927 40.3454 98.5752 40.3054 98.3364 40.3054H92.38C91.9616 40.3054 91.5105 40.2308 91.0271 40.081C90.5419 39.9315 90.0917 39.6906 89.6763 39.3583C89.2621 39.0271 88.9171 38.5928 88.6404 38.055C88.3655 37.5169 88.228 36.8597 88.228 36.0831Z" fill="white"/>
<path d="M110.383 45.4109C110.383 45.8145 110.055 46.1415 109.652 46.1415H108.523C108.119 46.1415 107.792 45.8145 107.792 45.4109V32.5889C107.792 32.1855 108.119 31.8583 108.523 31.8583H109.652C110.055 31.8583 110.383 32.1855 110.383 32.5889V45.4109Z" fill="white"/>
<path d="M128.589 31.8583H121.079C120.496 31.8583 119.97 31.9332 119.501 32.0827C119.033 32.2324 118.621 32.4319 118.266 32.6812C117.911 32.9306 117.607 33.2175 117.355 33.5424C117.103 33.8672 116.895 34.2071 116.732 34.5623C116.57 34.919 116.452 35.2779 116.378 35.6388C116.306 36.0015 116.27 36.3423 116.27 36.6612V41.3503C116.27 41.6692 116.306 42.0099 116.378 42.3724C116.452 42.7336 116.57 43.0904 116.732 43.4423C116.895 43.7942 117.103 44.135 117.355 44.4643C117.607 44.7925 117.911 45.0794 118.266 45.3258C118.621 45.5706 119.032 45.7676 119.497 45.9171C119.961 46.0669 120.488 46.1415 121.079 46.1415H128.589C128.992 46.1415 129.32 45.8145 129.32 45.4109V44.2839C129.32 43.8805 128.992 43.5533 128.589 43.5533H121.079C120.629 43.5533 120.267 43.4832 119.993 43.3424C119.721 43.2034 119.509 43.0275 119.356 42.8145C119.204 42.6028 119.096 42.3673 119.032 42.1074C118.97 41.849 118.919 41.5967 118.878 41.3503V36.6792C118.878 36.3408 118.93 36.034 119.032 35.7591C119.135 35.4824 119.283 35.2484 119.476 35.0565C119.668 34.8646 119.899 34.7148 120.168 34.6077C120.437 34.5018 120.74 34.4489 121.079 34.4489H128.589C128.992 34.4489 129.32 34.122 129.32 33.7183V32.5889C129.32 32.1855 128.992 31.8583 128.589 31.8583Z" fill="white"/>
<defs>
<linearGradient id="paint0_linear_2573_949" x1="43.2457" y1="29.8262" x2="37.5284" y2="48.9456" gradientUnits="userSpaceOnUse">
<stop offset="0.103627" stop-color="#19FFE0"/>
<stop offset="1" stop-color="#9D47FF"/>
</linearGradient>
<linearGradient id="paint1_linear_2573_949" x1="43.2458" y1="29.8263" x2="37.5285" y2="48.9457" gradientUnits="userSpaceOnUse">
<stop offset="0.103627" stop-color="#19FFE0"/>
<stop offset="1" stop-color="#9D47FF"/>
</linearGradient>
<linearGradient id="paint2_linear_2573_949" x1="43.2458" y1="29.8262" x2="37.5286" y2="48.9456" gradientUnits="userSpaceOnUse">
<stop offset="0.103627" stop-color="#19FFE0"/>
<stop offset="1" stop-color="#9D47FF"/>
</linearGradient>
</defs>
</svg>
